#N canvas 850 492 501 448 10;
#X obj -60 -45 loadbang;
#X obj -105 34 f;
#X obj -105 85 + 1;
#X obj -105 -20 bng 15 250 50 0 empty empty empty 17 7 0 10 -262144
-1 -1;
#X floatatom 142 103 2 0 0 0 - - -;
#X floatatom -105 61 5 0 0 0 - - -;
#X obj -60 128 select;
#X msg -33 -1 4;
#X floatatom 101 121 2 1 16 0 - - -;
#X floatatom 123 122 2 1 16 0 - - -;
#X text 114 121 /;
#X obj -56 175 select 1;
#X obj 17 258 outlet;
#X obj 101 103 bng 15 50 10 0 empty empty empty 17 7 0 10 -1 -4034
-1;
#X floatatom 174 122 4 0 0 0 - - -;
#X obj 152 253 f;
#X obj 214 221 + 1;
#X msg 166 23 1;
#X obj 123 103 bng 15 50 10 0 empty empty empty 17 7 0 10 -1 -257985
-1;
#X obj 61 258 outlet;
#X text 16 276 1bang;
#X obj 105 258 outlet;
#X text 103 277 taktel;
#X text 60 277 bpbar;
#X msg -60 -1 0;
#X obj 99 -1 >;
#X obj 99 21 sel 1;
#X msg 99 43 1;
#X obj 181 258 outlet;
#X text 179 275 barbang;
#X floatatom 158 103 2 0 0 0 - - -;
#X obj 177 103 bng 15 50 10 0 empty empty empty 17 7 0 10 -1 -262144
-1;
#X obj 253 64 f;
#X floatatom 253 86 5 0 0 0 - - -;
#X obj 253 107 + 1;
#X obj 231 257 outlet;
#X text 229 274 subdiv;
#X floatatom 142 122 2 1 32 0 - - -;
#X msg 321 0 0;
#X obj 253 42 t b;
#X obj 102 140 vradio 15 1 0 2 empty empty b/t 0 35 0 10 -1 -260097
-1 1;
#X obj 319 134 route 0 1;
#X obj -105 7 t b b;
#X msg 319 162 2;
#X msg 348 163 3;
#X obj 139 201 *;
#X floatatom 158 122 2 1 32 0 - - -;
#X obj 176 202 * 2;
#X obj 50 1 8;
#X obj 129 -44 inlet taktel;
#X obj 213 -43 inlet reset;
#X obj 266 -43 inlet subdivbang;
#X obj 11 -46 inlet bpbar;
#X obj 323 -20 inlet 1bang;
#X text 324 -35 comment;
#X text 265 -64 comment;
#X text 210 -64 comment;
#X text 126 -65 comment;
#X text -5 -67 comment;
#X obj -105 -60 inlet beatbang;
#X text -106 -68 comment;
#X msg 303 226 bang;
#X connect 0 0 24 0;
#X connect 0 0 7 0;
#X connect 0 0 37 0;
#X connect 0 0 45 0;
#X connect 0 0 8 0;
#X connect 0 0 48 0;
#X connect 1 0 5 0;
#X connect 2 0 4 0;
#X connect 3 0 42 0;
#X connect 4 0 1 1;
#X connect 4 0 6 0;
#X connect 4 0 11 0;
#X connect 4 0 25 0;
#X connect 5 0 2 0;
#X connect 7 0 8 0;
#X connect 7 0 9 0;
#X connect 8 0 6 1;
#X connect 8 0 19 0;
#X connect 8 0 25 1;
#X connect 8 0 45 0;
#X connect 9 0 21 0;
#X connect 9 0 47 0;
#X connect 11 0 13 0;
#X connect 11 0 15 0;
#X connect 11 1 18 0;
#X connect 13 0 12 0;
#X connect 14 0 16 0;
#X connect 15 0 14 0;
#X connect 16 0 15 1;
#X connect 17 0 15 1;
#X connect 17 0 14 0;
#X connect 17 0 4 0;
#X connect 17 0 33 0;
#X connect 17 0 30 0;
#X connect 18 0 28 0;
#X connect 24 0 1 1;
#X connect 24 0 32 1;
#X connect 24 0 40 0;
#X connect 25 0 26 0;
#X connect 26 0 27 0;
#X connect 27 0 4 0;
#X connect 30 0 32 1;
#X connect 31 0 39 0;
#X connect 32 0 33 0;
#X connect 33 0 34 0;
#X connect 34 0 30 0;
#X connect 37 0 35 0;
#X connect 38 0 32 1;
#X connect 39 0 32 0;
#X connect 40 0 41 0;
#X connect 41 0 43 0;
#X connect 41 0 61 0;
#X connect 41 1 44 0;
#X connect 41 1 61 0;
#X connect 42 0 1 0;
#X connect 43 0 45 1;
#X connect 44 0 45 1;
#X connect 45 0 37 0;
#X connect 47 0 46 0;
#X connect 48 0 37 0;
#X connect 49 0 9 0;
#X connect 50 0 17 0;
#X connect 50 0 15 0;
#X connect 50 0 38 0;
#X connect 50 0 24 0;
#X connect 51 0 31 0;
#X connect 51 0 9 0;
#X connect 52 0 8 0;
#X connect 53 0 38 0;
#X connect 59 0 3 0;
#X connect 61 0 45 0;
#X coords 0 -1 1 1 100 80 2 100 100;
