#N canvas 20 549 466 472 10;
#X obj 84 29 inlet;
#X obj 138 29 inlet;
#X obj 237 29 inlet;
#X text 135 9 stopbng;
#X text -2 296 MIDI;
#X text 134 310 stop;
#X text 190 310 clock;
#X floatatom 237 111 5 0 0 0 - - -;
#X obj 237 82 * 24;
#X text 238 183 speed;
#X text 235 10 bpm;
#X obj 158 197 inlet;
#X floatatom 158 220 5 0 0 0 - - -;
#X obj 77 434 outlet;
#X text 65 450 to midiout;
#X text 155 178 (4)delay;
#X text 80 9 playbang;
#X obj 170 72 inlet;
#X text 23 308 start;
#X text 74 308 continue;
#X obj 27 172 bng 15 250 50 0 empty empty empty 17 7 0 10 -262144 -1
-1;
#X obj 77 172 bng 15 250 50 0 empty empty empty 17 7 0 10 -262144 -1
-1;
#X obj 27 75 int;
#X obj 27 98 + 1;
#X floatatom 27 122 5 0 0 0 - - -;
#X obj 310 202 inlet;
#X text 307 184 metroswitch;
#X text 166 51 pausebang;
#X msg 104 406 250;
#X obj 77 368 route 0 1 2 3;
#X msg 159 406 252;
#X msg 131 406 251;
#X msg 77 406 248;
#X msg 27 326 1;
#X msg 77 326 2;
#X msg 138 328 3;
#X msg 192 328 0;
#X obj 237 137 expr 60000/$f1;
#X floatatom 237 168 5 0 0 0 - - -;
#X obj 191 291 metro;
#X obj 27 275 delay 20;
#X obj 77 275 delay 20;
#X obj 138 117 bng 15 250 50 0 empty empty empty 17 7 0 10 -262144
-1 -1;
#X obj 170 118 bng 15 250 50 0 empty empty empty 17 7 0 10 -262144
-1 -1;
#X msg 108 51 0;
#X obj 27 147 moses 2;
#X connect 0 0 22 0;
#X connect 1 0 42 0;
#X connect 1 0 44 0;
#X connect 2 0 8 0;
#X connect 7 0 37 0;
#X connect 8 0 7 0;
#X connect 11 0 12 0;
#X connect 12 0 40 1;
#X connect 12 0 41 1;
#X connect 17 0 43 0;
#X connect 20 0 40 0;
#X connect 21 0 41 0;
#X connect 22 0 23 0;
#X connect 23 0 24 0;
#X connect 24 0 22 1;
#X connect 24 0 45 0;
#X connect 25 0 39 0;
#X connect 28 0 13 0;
#X connect 29 0 32 0;
#X connect 29 1 28 0;
#X connect 29 2 31 0;
#X connect 29 3 30 0;
#X connect 30 0 13 0;
#X connect 31 0 13 0;
#X connect 32 0 13 0;
#X connect 33 0 29 0;
#X connect 34 0 29 0;
#X connect 35 0 29 0;
#X connect 36 0 29 0;
#X connect 37 0 38 0;
#X connect 38 0 39 1;
#X connect 39 0 36 0;
#X connect 40 0 33 0;
#X connect 41 0 34 0;
#X connect 42 0 35 0;
#X connect 43 0 35 0;
#X connect 44 0 22 1;
#X connect 45 0 20 0;
#X connect 45 1 21 0;
