#N canvas 0 0 450 300 10;
#X obj 121 82 inlet;
#X text 117 56 bangin;
#X obj 121 149 del \$1;
#X obj 164 83 inlet;
#X text 163 56 duration;
#X msg 121 179 0;
#X msg 189 180 \$1;
#X msg 189 149 0.5;
#X obj 189 119 loadbang;
#X obj 121 212 pack \$1 \$2;
#X obj 377 181 inlet;
#X text 374 152 release;
#X obj 121 239 line~;
#X obj 122 270 outlet~;
#X obj 189 213 pack \$1 \$2;
#X obj 121 104 bng 15 250 50 0 empty beatbangsum empty 17 7 0 10 -262144
-1 -1;
#X connect 0 0 15 0;
#X connect 2 0 5 0;
#X connect 3 0 2 1;
#X connect 5 0 9 0;
#X connect 6 0 14 0;
#X connect 7 0 6 0;
#X connect 8 0 7 0;
#X connect 9 0 12 0;
#X connect 10 0 9 1;
#X connect 10 0 14 1;
#X connect 12 0 13 0;
#X connect 14 0 12 0;
#X connect 15 0 2 0;
#X connect 15 0 14 0;
