#N canvas 0 0 530 735 12;
#X text 101 47 off;
#X msg 51 72 1;
#X msg 104 72 0;
#X text 48 48 on;
#X floatatom 250 272 5 1 1000 0 Speed - -;
#X obj 104 460 midiout;
#X msg 104 398 252;
#X obj 158 398 248;
#X obj 51 397 250;
#X msg 51 242 bang;
#X obj 51 272 delay 1500;
#X floatatom 284 204 5 0 0 0 - - -;
#X floatatom 161 71 5 0 500 2 Speed_(BPM) - -;
#X obj 250 240 /;
#X obj 284 168 * 24;
#X msg 223 203 60000;
#X msg 223 169 bang;
#X text 28 1 by ^Rooker (rooker@das-werkstatt.com);
#X text 244 82 Convert BPM to metro intervals: (60000msec / (24*BPM))
;
#X text 213 424 Delay: make sure slave has enough ticks to guess tempo
correctly.;
#X obj 158 316 metro 20;
#X text 10 378 MIDI start / stop / clock;
#X text 27 -15 MIDI Clock Implementation:;
#X connect 1 0 9 0;
#X connect 1 0 20 0;
#X connect 2 0 6 0;
#X connect 2 0 20 0;
#X connect 4 0 20 1;
#X connect 6 0 5 0;
#X connect 7 0 5 0;
#X connect 8 0 5 0;
#X connect 9 0 10 0;
#X connect 10 0 8 0;
#X connect 11 0 13 1;
#X connect 12 0 14 0;
#X connect 12 0 16 0;
#X connect 13 0 4 0;
#X connect 14 0 11 0;
#X connect 15 0 13 0;
#X connect 16 0 15 0;
#X connect 20 0 7 0;