#N canvas 97 421 450 300 10;
#X obj 189 41 bng 15 250 50 0 empty empty empty 17 7 0 10 -262144 -1
-1;
#X obj 111 124 tgl 15 0 empty empty empty 17 7 0 10 -262144 -1 -1 0
1;
#X obj 189 15 inlet;
#X obj 189 65 f;
#X obj 189 93 + 1;
#X msg 224 114 0;
#X floatatom 111 72 5 0 0 0 - - -;
#X obj 224 88 select 2;
#X obj 111 98 - 1;
#X obj 111 151 outlet;
#X connect 0 0 3 0;
#X connect 1 0 9 0;
#X connect 2 0 0 0;
#X connect 3 0 4 0;
#X connect 4 0 3 1;
#X connect 4 0 6 0;
#X connect 5 0 3 1;
#X connect 6 0 3 1;
#X connect 6 0 7 0;
#X connect 6 0 8 0;
#X connect 7 0 5 0;
#X connect 8 0 1 0;
