#N canvas 1 1 1663 992 10;
#X obj 348 172 metro;
#X obj 179 702 tgl 15 0 metro1s empty 1 4 8 0 10 -4160 -257985 -262144
0 1;
#X obj 566 172 metro;
#X obj 280 702 tgl 15 0 metro2s empty 2 4 8 0 10 -4160 -257985 -262144
0 1;
#X obj 279 41 expr 1000/($f1/60);
#X obj 540 76 expr $f1*$f2*$f3/$f4;
#X floatatom 226 704 2 1 24 0 m2x - xtimes2;
#X obj 393 324 expr $f1*3/2;
#X obj 872 76 expr $f1*$f2*$f3/$f4;
#X obj 385 702 tgl 15 0 metro3s empty 3 4 8 0 10 -4160 -257985 -262144
0 1;
#X obj 846 172 metro;
#X floatatom 329 704 2 1 24 0 m3x - xtimes3;
#X msg 106 512 120;
#X msg 379 511 2;
#X msg 493 512 440;
#X obj 103 719 barcounter;
#X obj 106 545 r beatbang1;
#X obj 243 851 s taktel2;
#X obj 150 851 s taktel1;
#X obj 348 195 s beatbang1;
#X obj 566 195 s beatbang2;
#X obj 846 195 s beatbang3;
#X obj 199 545 r beatbang2;
#X obj 291 545 r beatbang3;
#X obj 335 851 s taktel3;
#X obj -21 319 f;
#X obj -21 245 r 1bang1;
#X obj 110 813 s 1bang1;
#X obj 202 813 s 1bang2;
#X obj 294 813 s 1bang3;
#X obj 427 701 tgl 15 0 empty empty A 4 8 0 10 -159808 -257985 -262144
0 1;
#X obj 463 656 vsl 12 70 0 1 0 0 empty empty vol 0 -9 0 10 -1 -258113
-1 0 1;
#X obj 493 656 vsl 12 70 40 880 0 0 empty empty frq 0 -9 0 10 -162280
-258113 -1 3286 1;
#X floatatom 463 735 4 0 0 0 - - voltotal;
#X obj 0 265 r metrofreq1;
#X obj 313 378 s metroscfreq;
#X floatatom 560 619 6 0 0 0 metroscfreq metroscfreq -;
#X floatatom 493 735 3 0 0 0 - - metrofreq1;
#X obj 493 805 int;
#X obj 468 805 *;
#X obj 934 231 s beatbangsum;
#X obj 427 723 bng 15 50 10 0 empty beatbangsum empty 17 7 0 10 -1
-4032 -1;
#X obj 408 723 bng 15 100 50 0 empty beatbang1 empty 17 7 0 10 -1 -258113
-1;
#X obj 501 574 r beatbang1;
#X obj 579 14 r taktel1;
#X obj 130 835 s bpbar1;
#X obj 222 835 s bpbar2;
#X obj 314 835 s bpbar3;
#X obj 997 14 r bpbar3;
#X obj 700 14 r bpbar2;
#X floatatom 106 662 7 0 0 0 - - bpm1;
#X obj 109 646 hsl 70 12 60 240 0 0 empty empty bpm1 -2 -8 0 10 -262144
-1 -1 2300 1;
#X obj 279 3 r bpm1;
#X floatatom 125 704 2 1 24 0 m1x - xtimes1;
#X obj 378 97 s msmetro1;
#X obj 640 14 r xtimes2;
#X obj 930 14 r xtimes3;
#X floatatom 133 604 7 0 0 0 ms_1 msmetro1 -;
#X floatatom 231 604 7 0 0 0 ms_1 msmetro2 -;
#X floatatom 334 604 7 0 0 0 ms_1 msmetro3 -;
#X obj 592 97 s msmetro2;
#X obj 933 97 s msmetro3;
#X obj 78 474 loadbang;
#X obj 567 656 vsl 12 70 10 200 0 0 empty empty rel 0 -9 0 10 -191407
-262144 -1 472 1;
#X floatatom 567 735 5 0 0 0 - - oscrel;
#X obj 532 656 vsl 12 70 10 200 0 0 empty empty att 0 -9 0 10 -191407
-262144 -1 472 1;
#X floatatom 532 735 5 0 0 0 - - oscatt;
#X obj 78 497 bng 15 250 50 0 empty empty empty 17 7 0 10 -262144 -1
-1;
#X obj 348 149 r metro1s;
#X obj 566 149 r metro2s;
#X obj 846 149 r metro3s;
#X obj 393 256 r metrofreq1;
#X msg 174 512 1;
#X msg 318 512 7;
#X msg 126 512 4;
#X msg 532 512 23;
#X obj 86 319 f;
#X obj 86 245 r 1bang2;
#X obj 105 265 r metrofreq2;
#X obj 193 319 f;
#X obj 193 245 r 1bang3;
#X obj 212 265 r metrofreq3;
#X obj 212 288 * 2;
#X obj 0 288 * 2;
#X obj 105 288 * 2;
#X obj 405 349 s metrofreq2;
#X obj 547 349 s metrofreq3;
#X obj 535 324 * 5;
#X obj 520 349 f;
#X obj 378 349 f;
#X obj 172 868 s barbang1;
#X obj 264 868 s barbang2;
#X obj 356 868 s barbang3;
#X obj 378 291 r barbang2;
#X obj 520 291 r barbang3;
#X msg 226 512 5;
#X obj 328 480 r allresetbang;
#X obj 432 913 s allresetbang;
#X obj 405 913 s allplaybang;
#X obj 162 480 r allplaybang;
#X obj 457 873 s allstopbang;
#X obj 245 480 r allstopbang;
#X floatatom -15 814 5 0 0 0 - - -;
#X obj -37 662 s playbangsum;
#X obj -103 724 r playbangsum;
#X obj -101 757 r stopbangsum;
#X obj -36 695 s stopbangsum;
#X obj -15 791 expr $f1+$f2+$f3;
#X floatatom -15 859 5 0 0 0 - - -;
#X obj -15 836 == 3;
#X obj 31 861 int;
#X obj 31 884 + 1;
#X obj 309 245 metro;
#X floatatom 309 223 5 0 0 0 - - -;
#X floatatom 241 156 5 0 0 0 - - -;
#X floatatom 312 156 5 0 0 0 - - -;
#X obj 277 132 r bpbar1;
#X floatatom 277 155 5 0 0 0 - - -;
#X obj 313 111 r subdiv1;
#X obj 309 268 s subdivbang1;
#X obj 177 564 r subdivbang1;
#X obj 193 884 s subdiv1;
#X obj 195 582 r 1bang1;
#X obj 496 241 metro;
#X floatatom 523 223 5 0 0 0 - - -;
#X floatatom 455 156 5 0 0 0 - - -;
#X floatatom 526 156 5 0 0 0 - - -;
#X floatatom 491 155 5 0 0 0 - - -;
#X obj 527 111 r subdiv2;
#X obj 491 132 r bpbar2;
#X obj 496 264 s subdivbang2;
#X obj 285 884 s subdiv2;
#X obj 376 884 s subdiv3;
#X obj 278 564 r subdivbang2;
#X obj 297 582 r 1bang2;
#X obj 380 564 r subdivbang3;
#X obj 397 582 r 1bang3;
#X obj 775 241 metro;
#X floatatom 802 219 5 0 0 0 - - -;
#X floatatom 734 149 5 0 0 0 - - -;
#X floatatom 805 149 5 0 0 0 - - -;
#X floatatom 770 148 5 0 0 0 - - -;
#X obj 775 264 s subdivbang3;
#X obj 806 107 r subdiv3;
#X obj 770 125 r bpbar3;
#X obj 239 193 expr $f1*$f2/$f3;
#X obj 454 193 expr $f1*$f2/$f3;
#X obj 734 193 expr $f1*$f2/$f3;
#X obj 105 680 rythmtap;
#X floatatom -23 574 8 0 0 0 - - -;
#X obj -23 538 expr 60000/$f1;
#X obj 131 961 s resetbang1;
#X obj 229 961 s resetbang2;
#X obj 316 961 s resetbang3;
#X obj 56 647 int;
#X obj 106 902 s playbang1;
#X obj 157 942 s stopbang1;
#X floatatom 591 757 2 0 0 0 midiclock_start_delay - mclkdly;
#X obj 145 922 s pausebang1;
#X obj 636 125 expr 60000/$f1;
#X floatatom 636 148 5 0 0 0 - - bpm2;
#X obj 920 125 expr 60000/$f1;
#X floatatom 920 148 5 0 0 0 - - bpm3;
#X obj 202 902 s playbang2;
#X obj 240 922 s pausebang2;
#X obj 253 942 s stopbang2;
#X obj 329 922 s pausebang3;
#X obj 342 942 s stopbang3;
#X obj 292 902 s playbang3;
#X obj 444 893 s allpausebang;
#X obj 417 480 r allpausebang;
#X obj 399 625 seqctrl;
#X obj 602 656 vsl 12 70 0 200 0 0 empty empty prt 0 -9 0 10 -191407
-262144 -1 793 1;
#X floatatom 602 735 5 0 0 0 - - oscprt;
#X msg 591 512 30;
#X obj 106 625 seqctrl;
#X obj 307 625 seqctrl;
#X obj 205 625 seqctrl;
#X obj 638 818 *;
#X obj 922 279 s subdivbangsum;
#X obj 157 436 r mckldly;
#X obj 228 759 vradio 15 1 0 2 polys2 empty e/d 0 35 0 10 -1 -4032
-1 0;
#X obj 1068 72 spigot 1;
#X obj 1128 72 spigot 0;
#X obj 1113 49 tgl 15 0 empty empty empty 17 7 0 10 -262144 -1 -1 0
1;
#X obj 1173 49 tgl 15 0 empty empty empty 17 7 0 10 -262144 -1 -1 0
1;
#X obj 1173 25 == 1;
#X obj 1137 -4 r polys2;
#X obj 1113 25 == 0;
#X obj 1205 24 r msmetro1;
#X obj 1068 0 r msmetro2;
#X obj 330 760 vradio 15 1 0 2 polys3 empty e/d 0 35 0 10 -1 -4032
-1 0;
#X obj 1091 219 spigot 1;
#X obj 1151 219 spigot 0;
#X obj 1136 196 tgl 15 0 empty empty empty 17 7 0 10 -262144 -1 -1
0 1;
#X obj 1196 196 tgl 15 0 empty empty empty 17 7 0 10 -262144 -1 -1
0 1;
#X obj 1196 172 == 1;
#X obj 1136 172 == 0;
#X obj 1228 171 r msmetro1;
#X obj 1091 147 r msmetro3;
#X obj 1160 143 r polys3;
#X obj 879 720 bng 15 250 50 0 empty syncbang2 empty 17 7 0 10 -262144
-1 -1;
#X obj 914 753 s stopbang2;
#X msg 906 820 0;
#X msg 879 820 1;
#X obj 879 853 tgl 15 0 empty empty empty 17 7 0 10 -262144 -1 -1 0
1;
#X obj 906 790 delay 10;
#X obj 816 852 r 1bang1;
#X obj 834 880 spigot;
#X obj 834 915 s playbang2;
#X obj 1359 54 r taktel1;
#X obj 1306 74 r taktel2;
#X obj 1371 179 r taktel1;
#X obj 1318 199 r taktel3;
#X obj 1255 109 expr $f1/($f2/$f3);
#X obj 1266 233 expr $f1/($f2/$f3);
#X obj 875 497 bng 15 250 50 0 empty syncbang3 empty 17 7 0 10 -262144
-1 -1;
#X msg 902 597 0;
#X msg 875 597 1;
#X obj 875 630 tgl 15 0 empty empty empty 17 7 0 10 -262144 -1 -1 0
1;
#X obj 902 567 delay 10;
#X obj 812 629 r 1bang1;
#X obj 830 657 spigot;
#X obj 910 530 s stopbang3;
#X obj 267 626 bng 15 250 50 0 syncbang2 empty S 4 8 0 10 -86277 -258113
-262144;
#X obj 369 626 bng 15 250 50 0 syncbang3 empty S 4 8 0 10 -86277 -258113
-262144;
#X msg 802 585 0;
#X msg 781 812 0;
#X msg 807 823 1;
#X obj 830 692 s playbang3;
#X msg 828 585 1;
#X obj 636 602 myvu;
#X obj 155 759 taktelsel;
#X obj 254 759 taktelsel;
#X obj 357 759 taktelsel;
#X obj 204 719 barcounter;
#X obj 307 719 barcounter;
#N canvas 587 257 467 382 metrosynth 0;
#X obj 125 226 dac~;
#X obj 126 198 *~;
#X obj 34 85 metrosc;
#X obj 128 60 metrattrel;
#X obj 34 19 r metroscfreq;
#X obj 72 100 r voltotal;
#X obj 128 -9 r beatbangsum;
#X obj 156 15 r oscrel;
#X obj 185 34 r oscatt;
#X obj 73 -9 r oscprt;
#X obj 258 73 r mclkdly;
#X obj 213 123 delay~ 20;
#X obj 125 163 +~;
#X obj 224 227 outlet~ metrossigout;
#X connect 1 0 0 0;
#X connect 1 0 0 1;
#X connect 1 0 13 0;
#X connect 2 0 12 1;
#X connect 3 0 11 0;
#X connect 4 0 2 0;
#X connect 5 0 1 1;
#X connect 7 0 3 1;
#X connect 8 0 3 2;
#X connect 9 0 2 2;
#X connect 10 0 11 1;
#X connect 11 0 2 1;
#X connect 12 0 1 0;
#X restore 635 565 pd metrosynth;
#N canvas 0 0 1339 685 midiclocks 0;
#X obj 807 366 r metro1s;
#X obj 796 446 r bpm1;
#X obj 756 466 mclockgen;
#X obj 862 489 print clock2;
#X obj 972 489 print clock3;
#X obj 756 489 print clock1;
#X obj 756 404 r playbang1;
#X obj 786 388 r mclkdly;
#X obj 767 348 r stopbang1;
#X obj 776 426 r pausebang1;
#X obj 893 388 r mclkdly;
#X obj 873 344 r stopbang2;
#X obj 913 366 r metro2s;
#X obj 902 446 r bpm2;
#X obj 862 404 r playbang2;
#X obj 882 426 r pausebang2;
#X obj 1003 388 r mclkdly;
#X obj 983 348 r stopbang3;
#X obj 1023 366 r metro3s;
#X obj 972 404 r playbang3;
#X obj 992 426 r pausebang3;
#X obj 1012 446 r bpm3;
#X obj 862 466 mclockgen;
#X obj 972 466 mclockgen;
#X obj 734 512 midiout;
#X obj 839 512 midiout;
#X obj 951 513 midiout;
#X connect 0 0 2 5;
#X connect 1 0 2 4;
#X connect 2 0 5 0;
#X connect 2 0 24 0;
#X connect 6 0 2 0;
#X connect 7 0 2 2;
#X connect 8 0 2 1;
#X connect 9 0 2 3;
#X connect 10 0 22 2;
#X connect 11 0 22 1;
#X connect 12 0 22 5;
#X connect 13 0 22 4;
#X connect 14 0 22 0;
#X connect 15 0 22 3;
#X connect 16 0 23 2;
#X connect 17 0 23 1;
#X connect 18 0 23 5;
#X connect 19 0 23 0;
#X connect 20 0 23 3;
#X connect 21 0 23 4;
#X connect 22 0 3 0;
#X connect 22 0 25 0;
#X connect 23 0 4 0;
#X connect 23 0 26 0;
#X restore 636 535 pd midiclocks;
#X connect 0 0 19 0;
#X connect 0 0 40 0;
#X connect 0 0 4 0;
#X connect 1 0 107 0;
#X connect 2 0 20 0;
#X connect 2 0 40 0;
#X connect 3 0 107 1;
#X connect 4 0 5 0;
#X connect 4 0 8 0;
#X connect 4 0 0 1;
#X connect 4 0 54 0;
#X connect 4 0 114 0;
#X connect 5 0 60 0;
#X connect 7 0 89 1;
#X connect 7 0 85 0;
#X connect 8 0 61 0;
#X connect 9 0 107 2;
#X connect 10 0 21 0;
#X connect 10 0 40 0;
#X connect 12 0 51 0;
#X connect 13 0 11 0;
#X connect 14 0 32 0;
#X connect 15 0 27 0;
#X connect 15 1 45 0;
#X connect 15 2 18 0;
#X connect 15 3 90 0;
#X connect 15 4 121 0;
#X connect 16 0 15 0;
#X connect 22 0 235 0;
#X connect 23 0 236 0;
#X connect 25 0 35 0;
#X connect 26 0 25 0;
#X connect 26 0 83 0;
#X connect 31 0 39 0;
#X connect 31 0 39 1;
#X connect 32 0 38 0;
#X connect 34 0 35 0;
#X connect 34 0 83 0;
#X connect 38 0 37 0;
#X connect 39 0 33 0;
#X connect 43 0 37 0;
#X connect 44 0 5 1;
#X connect 44 0 8 1;
#X connect 48 0 8 3;
#X connect 49 0 5 3;
#X connect 51 0 154 0;
#X connect 52 0 4 0;
#X connect 55 0 5 2;
#X connect 56 0 8 2;
#X connect 62 0 67 0;
#X connect 63 0 64 0;
#X connect 65 0 66 0;
#X connect 67 0 12 0;
#X connect 67 0 13 0;
#X connect 67 0 14 0;
#X connect 67 0 75 0;
#X connect 67 0 72 0;
#X connect 67 0 95 0;
#X connect 67 0 73 0;
#X connect 67 0 74 0;
#X connect 67 0 174 0;
#X connect 68 0 0 0;
#X connect 68 0 112 0;
#X connect 69 0 2 0;
#X connect 69 0 123 0;
#X connect 70 0 10 0;
#X connect 70 0 137 0;
#X connect 71 0 7 0;
#X connect 71 0 87 0;
#X connect 72 0 53 0;
#X connect 72 0 6 0;
#X connect 72 0 234 0;
#X connect 73 0 236 1;
#X connect 74 0 15 1;
#X connect 75 0 63 0;
#X connect 75 0 65 0;
#X connect 75 0 172 0;
#X connect 76 0 35 0;
#X connect 77 0 76 0;
#X connect 77 0 84 0;
#X connect 78 0 84 0;
#X connect 79 0 35 0;
#X connect 80 0 79 0;
#X connect 80 0 82 0;
#X connect 81 0 82 0;
#X connect 82 0 79 1;
#X connect 83 0 25 1;
#X connect 84 0 76 1;
#X connect 87 0 88 1;
#X connect 87 0 86 0;
#X connect 88 0 35 0;
#X connect 89 0 35 0;
#X connect 93 0 89 0;
#X connect 94 0 88 0;
#X connect 95 0 235 1;
#X connect 96 0 175 2;
#X connect 96 0 176 2;
#X connect 96 0 177 2;
#X connect 99 0 175 0;
#X connect 99 0 176 0;
#X connect 99 0 177 0;
#X connect 101 0 175 1;
#X connect 101 0 176 1;
#X connect 101 0 177 1;
#X connect 102 0 109 0;
#X connect 102 0 110 1;
#X connect 104 0 108 0;
#X connect 104 0 107 0;
#X connect 105 0 108 0;
#X connect 105 0 107 0;
#X connect 105 0 110 0;
#X connect 107 0 102 0;
#X connect 108 0 30 0;
#X connect 109 0 108 0;
#X connect 110 0 111 0;
#X connect 111 0 107 0;
#X connect 112 0 119 0;
#X connect 112 0 179 0;
#X connect 113 0 112 1;
#X connect 114 0 145 0;
#X connect 115 0 145 2;
#X connect 116 0 117 0;
#X connect 117 0 145 1;
#X connect 118 0 115 0;
#X connect 120 0 15 4;
#X connect 122 0 15 5;
#X connect 123 0 130 0;
#X connect 123 0 179 0;
#X connect 124 0 123 1;
#X connect 125 0 146 0;
#X connect 126 0 146 2;
#X connect 127 0 146 1;
#X connect 128 0 126 0;
#X connect 129 0 127 0;
#X connect 133 0 235 4;
#X connect 134 0 235 5;
#X connect 135 0 236 4;
#X connect 136 0 236 5;
#X connect 137 0 142 0;
#X connect 137 0 179 0;
#X connect 138 0 137 1;
#X connect 139 0 147 0;
#X connect 140 0 147 2;
#X connect 141 0 147 1;
#X connect 143 0 140 0;
#X connect 144 0 141 0;
#X connect 145 0 113 0;
#X connect 146 0 124 0;
#X connect 147 0 138 0;
#X connect 148 0 150 0;
#X connect 149 0 51 0;
#X connect 150 0 149 0;
#X connect 154 0 50 0;
#X connect 159 0 160 0;
#X connect 161 0 162 0;
#X connect 170 0 175 3;
#X connect 170 0 176 3;
#X connect 170 0 177 3;
#X connect 171 0 98 0;
#X connect 171 0 103 0;
#X connect 171 2 97 0;
#X connect 171 3 169 0;
#X connect 171 4 100 0;
#X connect 172 0 173 0;
#X connect 174 0 157 0;
#X connect 175 0 1 0;
#X connect 175 0 103 0;
#X connect 175 0 155 0;
#X connect 175 1 1 0;
#X connect 175 1 106 0;
#X connect 175 1 107 0;
#X connect 175 2 151 0;
#X connect 175 2 15 3;
#X connect 175 3 158 0;
#X connect 175 4 156 0;
#X connect 176 0 9 0;
#X connect 176 0 103 0;
#X connect 176 0 168 0;
#X connect 176 1 9 0;
#X connect 176 1 106 0;
#X connect 176 2 153 0;
#X connect 176 2 236 3;
#X connect 176 3 166 0;
#X connect 176 4 167 0;
#X connect 177 0 3 0;
#X connect 177 0 103 0;
#X connect 177 0 163 0;
#X connect 177 1 3 0;
#X connect 177 1 106 0;
#X connect 177 2 152 0;
#X connect 177 2 235 3;
#X connect 177 3 164 0;
#X connect 177 4 165 0;
#X connect 180 0 175 4;
#X connect 180 0 177 4;
#X connect 180 0 176 4;
#X connect 180 0 171 4;
#X connect 182 0 125 0;
#X connect 182 0 2 1;
#X connect 182 0 159 0;
#X connect 183 0 125 0;
#X connect 183 0 159 0;
#X connect 183 0 2 1;
#X connect 184 0 182 1;
#X connect 185 0 183 1;
#X connect 186 0 185 0;
#X connect 187 0 186 0;
#X connect 187 0 188 0;
#X connect 188 0 184 0;
#X connect 189 0 214 0;
#X connect 190 0 182 0;
#X connect 192 0 139 0;
#X connect 192 0 10 1;
#X connect 192 0 161 0;
#X connect 193 0 139 0;
#X connect 193 0 10 1;
#X connect 193 0 161 0;
#X connect 194 0 192 1;
#X connect 195 0 193 1;
#X connect 196 0 195 0;
#X connect 197 0 194 0;
#X connect 198 0 215 0;
#X connect 199 0 192 0;
#X connect 200 0 196 0;
#X connect 200 0 197 0;
#X connect 201 0 202 0;
#X connect 201 0 206 0;
#X connect 201 0 204 0;
#X connect 201 0 227 0;
#X connect 203 0 205 0;
#X connect 204 0 205 0;
#X connect 205 0 208 1;
#X connect 206 0 203 0;
#X connect 207 0 208 0;
#X connect 208 0 209 0;
#X connect 208 0 228 0;
#X connect 210 0 214 2;
#X connect 211 0 214 1;
#X connect 212 0 215 2;
#X connect 213 0 215 1;
#X connect 214 0 183 0;
#X connect 215 0 193 0;
#X connect 216 0 220 0;
#X connect 216 0 218 0;
#X connect 216 0 223 0;
#X connect 216 0 226 0;
#X connect 217 0 219 0;
#X connect 218 0 219 0;
#X connect 219 0 222 1;
#X connect 220 0 217 0;
#X connect 221 0 222 0;
#X connect 222 0 229 0;
#X connect 222 0 230 0;
#X connect 225 0 176 2;
#X connect 226 0 9 0;
#X connect 227 0 3 0;
#X connect 228 0 3 0;
#X connect 230 0 9 0;
#X connect 232 0 15 2;
#X connect 233 0 235 2;
#X connect 234 0 236 2;
#X connect 235 0 28 0;
#X connect 235 1 46 0;
#X connect 235 2 17 0;
#X connect 235 3 91 0;
#X connect 235 4 131 0;
#X connect 236 0 29 0;
#X connect 236 1 47 0;
#X connect 236 2 24 0;
#X connect 236 3 92 0;
#X connect 236 4 132 0;
#X connect 237 0 231 0;
#X coords 0 -1 1 1 590 200 2 100 600;
