#N canvas 15 372 394 474 10;
#X obj 101 103 bng 15 250 50 0 empty empty empty 17 7 0 10 -262144
-1 -1;
#X obj 24 245 tgl 15 0 empty empty empty 17 7 0 10 -262144 -1 -1 0
1;
#X obj 102 43 inlet;
#X obj 102 186 f;
#X obj 102 214 + 1;
#X msg 137 235 0;
#X floatatom 24 193 5 0 0 0 - - -;
#X obj 137 209 select 2;
#X obj 24 219 - 1;
#X obj 24 378 outlet;
#X obj 24 276 route 0 1;
#X obj 24 336 timer;
#X obj 24 298 bng 15 250 50 0 empty empty empty 17 7 0 10 -262144 -1
-1;
#X obj 49 299 bng 15 250 50 0 empty empty empty 17 7 0 10 -262144 -1
-1;
#X text 21 393 mstap;
#X text 101 24 tapbang;
#X floatatom 120 102 8 0 0 0 - - -;
#X obj 91 311 print;
#X obj 51 316 t b b;
#X obj 108 361 f 500;
#X obj 215 63 loadbang;
#X connect 0 0 3 0;
#X connect 1 0 10 0;
#X connect 2 0 0 0;
#X connect 3 0 4 0;
#X connect 4 0 3 1;
#X connect 4 0 6 0;
#X connect 5 0 3 1;
#X connect 6 0 3 1;
#X connect 6 0 7 0;
#X connect 6 0 8 0;
#X connect 7 0 5 0;
#X connect 8 0 1 0;
#X connect 10 0 12 0;
#X connect 10 1 13 0;
#X connect 10 2 17 0;
#X connect 11 0 9 0;
#X connect 11 0 19 0;
#X connect 12 0 11 0;
#X connect 13 0 18 0;
#X connect 18 0 11 1;
#X connect 19 0 16 0;
#X connect 19 0 9 0;
#X connect 20 0 19 0;
#X coords 0 -1 1 1 75 20 2 100 100;
