#N canvas 811 195 395 535 10;
#X obj 122 101 bng 15 250 50 0 empty empty S 4 8 0 10 -258113 -257985
-262144;
#X obj 101 101 bng 15 250 50 0 empty empty P 4 8 0 10 -4034 -257985
-262144;
#X obj 143 101 bng 15 250 50 0 empty empty R 4 8 0 10 -1 -257985 -262144
;
#X floatatom 16 293 5 0 2 0 - - -;
#X msg 53 237 0;
#X obj 16 198 t b b;
#X obj 16 321 + 1;
#X floatatom 16 349 5 0 2 0 - - -;
#X obj 192 73 select 2;
#X obj 94 422 outlet;
#X obj 134 224 outlet;
#X obj 162 183 outlet;
#X text 159 200 resetbang;
#X obj 101 -44 inlet;
#X obj 122 -3 inlet;
#X obj 143 41 inlet;
#X text 131 241 stopzero;
#X obj 16 259 int;
#X text 83 -63 playbang;
#X text 105 -22 stopang;
#X text 125 22 resetbang;
#X obj 177 422 outlet;
#X text 175 439 (4)pausebang;
#X obj 94 278 int;
#X text 91 441 (1)playbang;
#X obj 94 300 + 1;
#X floatatom 94 325 5 0 0 0 - - -;
#X obj 94 394 bng 15 250 50 0 empty empty empty 17 7 0 10 -262144 -1
-1;
#X obj 129 395 bng 15 250 50 0 empty empty empty 17 7 0 10 -262144
-1 -1;
#X msg 129 307 0;
#X obj 129 344 select 2;
#X obj 324 295 outlet;
#X text 321 275 stopbang;
#X obj 94 367 route 1 0;
#X msg 186 303 0;
#X msg 131 156 0;
#X obj 258 23 inlet;
#X text 259 4 pausebang;
#X obj 101 149 delay 20;
#X obj 328 57 inlet delay;
#X connect 0 0 5 0;
#X connect 0 0 31 0;
#X connect 0 0 35 0;
#X connect 1 0 38 0;
#X connect 2 0 4 0;
#X connect 2 0 11 0;
#X connect 3 0 6 0;
#X connect 4 0 7 0;
#X connect 5 0 17 0;
#X connect 6 0 7 0;
#X connect 7 0 17 1;
#X connect 7 0 8 0;
#X connect 8 0 2 0;
#X connect 8 0 7 0;
#X connect 13 0 1 0;
#X connect 14 0 0 0;
#X connect 15 0 2 0;
#X connect 17 0 3 0;
#X connect 23 0 25 0;
#X connect 25 0 26 0;
#X connect 26 0 23 1;
#X connect 26 0 30 0;
#X connect 26 0 33 0;
#X connect 27 0 9 0;
#X connect 28 0 21 0;
#X connect 28 0 34 0;
#X connect 29 0 26 0;
#X connect 30 0 29 0;
#X connect 33 0 27 0;
#X connect 33 1 28 0;
#X connect 34 0 10 0;
#X connect 35 0 10 0;
#X connect 35 0 23 1;
#X connect 36 0 1 0;
#X connect 38 0 4 0;
#X connect 38 0 23 0;
#X connect 39 0 38 1;
#X coords 0 -1 1 1 58 17 2 100 100;
